<?xml version="1.0" encoding="UTF-8" standalone="no"?><!DOCTYPE svg PUBLIC "-//W3C//DTD SVG 1.1//EN" "http://www.w3.org/Graphics/SVG/1.1/DTD/svg11.dtd"><svg width="100%" height="100%" viewBox="0 0 32 32" version="1.1" xmlns="http://www.w3.org/2000/svg" xmlns:xlink="http://www.w3.org/1999/xlink" xml:space="preserve" xmlns:serif="http://www.serif.com/" style="fill-rule:evenodd;clip-rule:evenodd;stroke-linejoin:round;stroke-miterlimit:2;"><g><path d="M30.311,7.676l-2.043,20.513l-24.536,0l-1.646,-20.117l13.914,7.791l14.311,-8.188Z" style="fill:#f2f2f2;fill-rule:nonzero;"/><path d="M29.618,3.811l-13.618,12.793l-13.618,-12.793l27.236,0Z" style="fill:#f2f2f2;fill-rule:nonzero;"/></g><path d="M3.732,9.718l0,18.471l-2.223,0c-0.833,0 -1.509,-0.676 -1.509,-1.509l0,-19.682l2.438,0.066l1.294,2.654Z" style="fill:#f14336;fill-rule:nonzero;"/><path d="M32,6.998l0,19.682c0,0.833 -0.676,1.509 -1.509,1.509l-2.223,0l0,-18.471l1.231,-2.908l2.501,0.188Z" style="fill:#d32e2a;fill-rule:nonzero;"/><path d="M32,5.32l0,1.678l-3.732,2.72l-12.268,8.942l-12.268,-8.942l-3.732,-2.72l0,-1.678c0,-0.833 0.676,-1.509 1.509,-1.509l0.873,0l13.618,9.926l13.618,-9.926l0.872,0c0.834,0 1.51,0.676 1.51,1.509Z" style="fill:#f14336;fill-rule:nonzero;"/><path d="M3.732,9.718l-3.732,-0.578l0,-2.142l3.732,2.72Z" style="fill:#d32e2a;fill-rule:nonzero;"/></svg>