<?xml version="1.0" encoding="UTF-8" standalone="no"?><!DOCTYPE svg PUBLIC "-//W3C//DTD SVG 1.1//EN" "http://www.w3.org/Graphics/SVG/1.1/DTD/svg11.dtd"><svg width="100%" height="100%" viewBox="0 0 32 32" version="1.1" xmlns="http://www.w3.org/2000/svg" xmlns:xlink="http://www.w3.org/1999/xlink" xml:space="preserve" xmlns:serif="http://www.serif.com/" style="fill-rule:evenodd;clip-rule:evenodd;stroke-linejoin:round;stroke-miterlimit:2;"><g><path d="M32,30c0,1.104 -0.896,2 -2,2l-28,0c-1.104,0 -2,-0.896 -2,-2l0,-28c0,-1.104 0.896,-2 2,-2l28,0c1.104,0 2,0.896 2,2l0,28Z" style="fill:#007bb5;fill-rule:nonzero;"/><g><rect x="7" y="11" width="4" height="14" style="fill:#fff;"/><path d="M20.499,11c-2.791,0 -3.271,1.018 -3.499,2l0,-2l-4,0l0,14l4,0l0,-8c0,-1.297 0.703,-2 2,-2c1.266,0 2,0.688 2,2l0,8l4,0l0,-7c0,-4 -0.521,-7 -4.501,-7Z" style="fill:#fff;fill-rule:nonzero;"/><circle cx="9" cy="8" r="2" style="fill:#fff;"/></g></g></svg>