<?xml version="1.0" encoding="UTF-8" standalone="no"?><!DOCTYPE svg PUBLIC "-//W3C//DTD SVG 1.1//EN" "http://www.w3.org/Graphics/SVG/1.1/DTD/svg11.dtd"><svg width="100%" height="100%" viewBox="0 0 32 32" version="1.1" xmlns="http://www.w3.org/2000/svg" xmlns:xlink="http://www.w3.org/1999/xlink" xml:space="preserve" xmlns:serif="http://www.serif.com/" style="fill-rule:evenodd;clip-rule:evenodd;stroke-linejoin:round;stroke-miterlimit:2;"><g><path id="Dark_Blue" d="M28,32l-24,0c-2.208,0 -4,-1.792 -4,-4l0,-24c0,-2.208 1.792,-4 4,-4l24,0c2.208,0 4,1.792 4,4l0,24c0,2.208 -1.792,4 -4,4Z" style="fill:#1da1f2;fill-rule:nonzero;"/><path id="Logo__x2014__FIXED" d="M12.288,24.128c7.544,0 11.672,-6.256 11.672,-11.672c0,-0.176 0,-0.352 -0.008,-0.528c0.8,-0.576 1.496,-1.304 2.048,-2.128c-0.736,0.328 -1.528,0.544 -2.36,0.648c0.848,-0.504 1.496,-1.312 1.808,-2.272c-0.792,0.472 -1.672,0.808 -2.608,0.992c-0.752,-0.8 -1.816,-1.296 -2.992,-1.296c-2.264,0 -4.104,1.84 -4.104,4.104c0,0.32 0.04,0.632 0.104,0.936c-3.408,-0.168 -6.432,-1.808 -8.456,-4.288c-0.352,0.608 -0.552,1.312 -0.552,2.064c0,1.424 0.728,2.68 1.824,3.416c-0.672,-0.024 -1.304,-0.208 -1.856,-0.512l0,0.056c0,1.984 1.416,3.648 3.288,4.024c-0.344,0.096 -0.704,0.144 -1.08,0.144c-0.264,0 -0.52,-0.024 -0.768,-0.072c0.52,1.632 2.04,2.816 3.832,2.848c-1.408,1.104 -3.176,1.76 -5.096,1.76c-0.328,0 -0.656,-0.016 -0.976,-0.056c1.808,1.152 3.968,1.832 6.28,1.832" style="fill:#fff;fill-rule:nonzero;"/></g></svg>